<?xml version="1.0" encoding="utf-8" standalone="no"?>
<!DOCTYPE svg PUBLIC "-//W3C//DTD SVG 1.1//EN"
  "http://www.w3.org/Graphics/SVG/1.1/DTD/svg11.dtd">
<!-- Created with matplotlib (https://matplotlib.org/) -->
<svg height="648pt" version="1.1" viewBox="0 0 2304 648" width="2304pt" xmlns="http://www.w3.org/2000/svg" xmlns:xlink="http://www.w3.org/1999/xlink">
 <metadata>
  <rdf:RDF xmlns:cc="http://creativecommons.org/ns#" xmlns:dc="http://purl.org/dc/elements/1.1/" xmlns:rdf="http://www.w3.org/1999/02/22-rdf-syntax-ns#">
   <cc:Work>
    <dc:type rdf:resource="http://purl.org/dc/dcmitype/StillImage"/>
    <dc:date>2021-03-04T11:19:40.832427</dc:date>
    <dc:format>image/svg+xml</dc:format>
    <dc:creator>
     <cc:Agent>
      <dc:title>Matplotlib v3.3.2, https://matplotlib.org/</dc:title>
     </cc:Agent>
    </dc:creator>
   </cc:Work>
  </rdf:RDF>
 </metadata>
 <defs>
  <style type="text/css">*{stroke-linecap:butt;stroke-linejoin:round;}</style>
 </defs>
 <g id="figure_1">
  <g id="patch_1">
   <path d="M 0 648 
L 2304 648 
L 2304 0 
L 0 0 
z
" style="fill:none;"/>
  </g>
  <g id="axes_1">
   <g id="patch_2">
    <path d="M 288 567 
L 1099.636364 567 
L 1099.636364 77.76 
L 288 77.76 
z
" style="fill:#ffffff;"/>
   </g>
   <g id="matplotlib.axis_1">
    <g id="xtick_1">
     <g id="line2d_1">
      <path clip-path="url(#p087a9d6bae)" d="M 324.892562 567 
L 324.892562 77.76 
" style="fill:none;stroke:#b0b0b0;stroke-linecap:square;stroke-opacity:0.6;stroke-width:0.8;"/>
     </g>
     <g id="line2d_2">
      <defs>
       <path d="M 0 0 
L 0 3.5 
" id="m44c0fcd87d" style="stroke:#000000;stroke-width:0.8;"/>
      </defs>
      <g>
       <use style="stroke:#000000;stroke-width:0.8;" x="324.892562" xlink:href="#m44c0fcd87d" y="567"/>
      </g>
     </g>
     <g id="text_1">
      <!-- 1 -->
      <g transform="translate(322.392562 580.875)scale(0.1 -0.1)">
       <defs>
        <path d="M 21.875 56.25 
Q 16.796875 51.171875 8.984375 46.484375 
L 8.984375 53.90625 
Q 18.75 60.546875 25 69.53125 
L 29.6875 69.53125 
L 29.6875 2.34375 
L 21.875 2.34375 
z
" id="SimHei-49"/>
       </defs>
       <use xlink:href="#SimHei-49"/>
      </g>
     </g>
    </g>
    <g id="xtick_2">
     <g id="line2d_3">
      <path clip-path="url(#p087a9d6bae)" d="M 391.969947 567 
L 391.969947 77.76 
" style="fill:none;stroke:#b0b0b0;stroke-linecap:square;stroke-opacity:0.6;stroke-width:0.8;"/>
     </g>
     <g id="line2d_4">
      <g>
       <use style="stroke:#000000;stroke-width:0.8;" x="391.969947" xlink:href="#m44c0fcd87d" y="567"/>
      </g>
     </g>
     <g id="text_2">
      <!-- 2 -->
      <g transform="translate(389.469947 580.875)scale(0.1 -0.1)">
       <defs>
        <path d="M 4.6875 3.90625 
Q 5.078125 9.765625 10.15625 14.453125 
Q 15.234375 19.140625 23.046875 29.09375 
Q 30.859375 39.0625 33.203125 44.53125 
Q 35.546875 50 34.953125 53.90625 
Q 34.375 57.8125 31.25 60.34375 
Q 28.125 62.890625 24.015625 62.5 
Q 19.921875 62.109375 16.203125 59.375 
Q 12.5 56.640625 10.546875 51.171875 
L 3.125 52.34375 
Q 6.25 61.328125 11.125 65.421875 
Q 16.015625 69.53125 22.65625 69.921875 
Q 26.5625 70.3125 29.6875 69.71875 
Q 32.8125 69.140625 36.125 66.984375 
Q 39.453125 64.84375 41.59375 60.546875 
Q 43.75 56.25 43.15625 50.1875 
Q 42.578125 44.140625 37.109375 35.734375 
Q 31.640625 27.34375 16.015625 9.375 
L 44.140625 9.375 
L 44.140625 2.34375 
L 4.6875 2.34375 
z
" id="SimHei-50"/>
       </defs>
       <use xlink:href="#SimHei-50"/>
      </g>
     </g>
    </g>
    <g id="xtick_3">
     <g id="line2d_5">
      <path clip-path="url(#p087a9d6bae)" d="M 459.047333 567 
L 459.047333 77.76 
" style="fill:none;stroke:#b0b0b0;stroke-linecap:square;stroke-opacity:0.6;stroke-width:0.8;"/>
     </g>
     <g id="line2d_6">
      <g>
       <use style="stroke:#000000;stroke-width:0.8;" x="459.047333" xlink:href="#m44c0fcd87d" y="567"/>
      </g>
     </g>
     <g id="text_3">
      <!-- 3 -->
      <g transform="translate(456.547333 580.875)scale(0.1 -0.1)">
       <defs>
        <path d="M 3.90625 19.140625 
L 10.9375 20.3125 
Q 12.5 15.234375 16.015625 11.90625 
Q 19.53125 8.59375 24.796875 8.78125 
Q 30.078125 8.984375 33.203125 13.078125 
Q 36.328125 17.1875 35.9375 22.453125 
Q 35.546875 27.734375 31.828125 30.65625 
Q 28.125 33.59375 19.921875 34.765625 
L 19.921875 39.84375 
Q 28.125 40.625 31.828125 44.140625 
Q 35.546875 47.65625 35.15625 53.3125 
Q 34.765625 58.984375 30.078125 61.515625 
Q 25.390625 64.0625 20.109375 62.109375 
Q 14.84375 60.15625 11.71875 51.171875 
L 4.6875 52.34375 
Q 7.03125 59.375 11.125 64.0625 
Q 15.234375 68.75 22.265625 69.53125 
Q 29.296875 70.3125 34.5625 67.765625 
Q 39.84375 65.234375 41.984375 59.953125 
Q 44.140625 54.6875 42.578125 48.4375 
Q 41.015625 42.1875 33.59375 37.5 
Q 39.0625 35.15625 41.984375 30.46875 
Q 44.921875 25.78125 43.9375 18.15625 
Q 42.96875 10.546875 37.109375 5.859375 
Q 31.25 1.171875 23.828125 1.359375 
Q 16.40625 1.5625 10.9375 6.046875 
Q 5.46875 10.546875 3.90625 19.140625 
z
" id="SimHei-51"/>
       </defs>
       <use xlink:href="#SimHei-51"/>
      </g>
     </g>
    </g>
    <g id="xtick_4">
     <g id="line2d_7">
      <path clip-path="url(#p087a9d6bae)" d="M 526.124718 567 
L 526.124718 77.76 
" style="fill:none;stroke:#b0b0b0;stroke-linecap:square;stroke-opacity:0.6;stroke-width:0.8;"/>
     </g>
     <g id="line2d_8">
      <g>
       <use style="stroke:#000000;stroke-width:0.8;" x="526.124718" xlink:href="#m44c0fcd87d" y="567"/>
      </g>
     </g>
     <g id="text_4">
      <!-- 4 -->
      <g transform="translate(523.624718 580.875)scale(0.1 -0.1)">
       <defs>
        <path d="M 31.25 17.1875 
L 1.171875 17.1875 
L 1.171875 23.828125 
L 32.8125 69.53125 
L 38.671875 69.53125 
L 38.671875 23.828125 
L 48.046875 23.828125 
L 48.046875 17.1875 
L 38.671875 17.1875 
L 38.671875 2.34375 
L 31.25 2.34375 
z
M 31.25 23.828125 
L 31.25 54.6875 
L 9.375 23.828125 
z
" id="SimHei-52"/>
       </defs>
       <use xlink:href="#SimHei-52"/>
      </g>
     </g>
    </g>
    <g id="xtick_5">
     <g id="line2d_9">
      <path clip-path="url(#p087a9d6bae)" d="M 593.202104 567 
L 593.202104 77.76 
" style="fill:none;stroke:#b0b0b0;stroke-linecap:square;stroke-opacity:0.6;stroke-width:0.8;"/>
     </g>
     <g id="line2d_10">
      <g>
       <use style="stroke:#000000;stroke-width:0.8;" x="593.202104" xlink:href="#m44c0fcd87d" y="567"/>
      </g>
     </g>
     <g id="text_5">
      <!-- 5 -->
      <g transform="translate(590.702104 580.875)scale(0.1 -0.1)">
       <defs>
        <path d="M 8.59375 20.703125 
Q 11.328125 10.15625 17.96875 8.984375 
Q 24.609375 7.8125 28.703125 10.34375 
Q 32.8125 12.890625 34.5625 16.984375 
Q 36.328125 21.09375 36.125 26.171875 
Q 35.9375 31.25 33.390625 34.765625 
Q 30.859375 38.28125 26.953125 39.453125 
Q 23.046875 40.625 18.15625 39.453125 
Q 13.28125 38.28125 10.15625 33.984375 
L 3.515625 34.765625 
Q 4.296875 37.109375 10.9375 68.359375 
L 41.796875 68.359375 
L 41.796875 61.328125 
L 16.796875 61.328125 
Q 14.84375 50.78125 12.890625 44.53125 
Q 18.75 47.265625 23.828125 47.0625 
Q 28.90625 46.875 33.59375 44.71875 
Q 38.28125 42.578125 40.421875 38.859375 
Q 42.578125 35.15625 43.546875 31.4375 
Q 44.53125 27.734375 44.328125 23.4375 
Q 44.140625 19.140625 42.578125 14.640625 
Q 41.015625 10.15625 37.890625 7.21875 
Q 34.765625 4.296875 30.265625 2.53125 
Q 25.78125 0.78125 19.921875 1.171875 
Q 14.0625 1.5625 8.78125 5.46875 
Q 3.515625 9.375 1.5625 18.75 
z
" id="SimHei-53"/>
       </defs>
       <use xlink:href="#SimHei-53"/>
      </g>
     </g>
    </g>
    <g id="xtick_6">
     <g id="line2d_11">
      <path clip-path="url(#p087a9d6bae)" d="M 660.279489 567 
L 660.279489 77.76 
" style="fill:none;stroke:#b0b0b0;stroke-linecap:square;stroke-opacity:0.6;stroke-width:0.8;"/>
     </g>
     <g id="line2d_12">
      <g>
       <use style="stroke:#000000;stroke-width:0.8;" x="660.279489" xlink:href="#m44c0fcd87d" y="567"/>
      </g>
     </g>
     <g id="text_6">
      <!-- 6 -->
      <g transform="translate(657.779489 580.875)scale(0.1 -0.1)">
       <defs>
        <path d="M 3.515625 19.53125 
Q 4.296875 30.859375 6.046875 34.765625 
Q 7.8125 38.671875 11.328125 44.53125 
L 27.34375 69.53125 
L 36.328125 69.53125 
L 19.921875 43.75 
Q 30.46875 46.484375 36.71875 42.96875 
Q 42.96875 39.453125 45.109375 34.953125 
Q 47.265625 30.46875 47.453125 25.1875 
Q 47.65625 19.921875 45.890625 14.84375 
Q 44.140625 9.765625 39.640625 5.65625 
Q 35.15625 1.5625 27.140625 1.171875 
Q 19.140625 0.78125 13.46875 4.09375 
Q 7.8125 7.421875 5.65625 13.46875 
Q 3.515625 19.53125 4.296875 30.859375 
z
M 12.5 16.015625 
Q 19.53125 8.59375 25.390625 8.203125 
Q 31.25 7.8125 35.15625 12.109375 
Q 39.0625 16.40625 39.0625 24.609375 
Q 39.0625 32.8125 34.171875 35.9375 
Q 29.296875 39.0625 23.234375 38.28125 
Q 17.1875 37.5 14.453125 32.421875 
Q 11.71875 27.34375 12.109375 21.671875 
Q 12.5 16.015625 19.53125 8.59375 
z
" id="SimHei-54"/>
       </defs>
       <use xlink:href="#SimHei-54"/>
      </g>
     </g>
    </g>
    <g id="xtick_7">
     <g id="line2d_13">
      <path clip-path="url(#p087a9d6bae)" d="M 727.356875 567 
L 727.356875 77.76 
" style="fill:none;stroke:#b0b0b0;stroke-linecap:square;stroke-opacity:0.6;stroke-width:0.8;"/>
     </g>
     <g id="line2d_14">
      <g>
       <use style="stroke:#000000;stroke-width:0.8;" x="727.356875" xlink:href="#m44c0fcd87d" y="567"/>
      </g>
     </g>
     <g id="text_7">
      <!-- 7 -->
      <g transform="translate(724.856875 580.875)scale(0.1 -0.1)">
       <defs>
        <path d="M 13.28125 2.34375 
Q 20.3125 32.03125 37.890625 61.328125 
L 4.296875 61.328125 
L 4.296875 68.359375 
L 46.09375 68.359375 
L 46.09375 61.71875 
Q 27.734375 32.03125 21.875 2.34375 
L 13.28125 2.34375 
z
" id="SimHei-55"/>
       </defs>
       <use xlink:href="#SimHei-55"/>
      </g>
     </g>
    </g>
    <g id="xtick_8">
     <g id="line2d_15">
      <path clip-path="url(#p087a9d6bae)" d="M 794.43426 567 
L 794.43426 77.76 
" style="fill:none;stroke:#b0b0b0;stroke-linecap:square;stroke-opacity:0.6;stroke-width:0.8;"/>
     </g>
     <g id="line2d_16">
      <g>
       <use style="stroke:#000000;stroke-width:0.8;" x="794.43426" xlink:href="#m44c0fcd87d" y="567"/>
      </g>
     </g>
     <g id="text_8">
      <!-- 8 -->
      <g transform="translate(791.93426 580.875)scale(0.1 -0.1)">
       <defs>
        <path d="M 2.734375 16.796875 
Q 2.734375 26.171875 5.078125 30.65625 
Q 7.421875 35.15625 12.890625 37.890625 
Q 8.203125 40.625 6.640625 43.9375 
Q 5.078125 47.265625 4.875 51.5625 
Q 4.6875 55.859375 6.046875 58.984375 
Q 7.421875 62.109375 10.15625 64.84375 
Q 12.890625 67.578125 16.203125 68.546875 
Q 19.53125 69.53125 23.4375 69.53125 
Q 27.34375 69.53125 30.46875 68.75 
Q 33.59375 67.96875 37.109375 65.421875 
Q 40.625 62.890625 42.1875 58.203125 
Q 43.75 53.515625 41.984375 47.265625 
Q 40.234375 41.015625 32.8125 37.5 
Q 39.453125 35.546875 42.1875 31.4375 
Q 44.921875 27.34375 44.921875 21.484375 
Q 44.921875 15.625 43.15625 12.109375 
Q 41.40625 8.59375 39.25 6.25 
Q 37.109375 3.90625 33.390625 2.53125 
Q 29.6875 1.171875 24.015625 1.171875 
Q 18.359375 1.171875 14.25 2.53125 
Q 10.15625 3.90625 7.421875 6.640625 
Q 4.6875 9.375 3.703125 13.078125 
Q 2.734375 16.796875 2.734375 26.171875 
z
M 10.9375 26.5625 
Q 10.546875 17.1875 12.296875 13.671875 
Q 14.0625 10.15625 18.75 9.171875 
Q 23.4375 8.203125 28.515625 9.375 
Q 33.59375 10.546875 35.546875 14.84375 
Q 37.5 19.140625 36.90625 23.4375 
Q 36.328125 27.734375 32.03125 30.65625 
Q 27.734375 33.59375 22.65625 33.203125 
Q 17.578125 32.8125 14.25 29.6875 
Q 10.9375 26.5625 10.546875 17.1875 
z
M 12.109375 56.25 
Q 12.109375 48.4375 14.84375 44.921875 
Q 17.578125 41.40625 23.4375 41.40625 
Q 29.296875 41.40625 32.21875 44.921875 
Q 35.15625 48.4375 34.953125 53.3125 
Q 34.765625 58.203125 31.4375 60.546875 
Q 28.125 62.890625 22.453125 62.5 
Q 16.796875 62.109375 14.453125 59.171875 
Q 12.109375 56.25 12.109375 48.4375 
z
" id="SimHei-56"/>
       </defs>
       <use xlink:href="#SimHei-56"/>
      </g>
     </g>
    </g>
    <g id="xtick_9">
     <g id="line2d_17">
      <path clip-path="url(#p087a9d6bae)" d="M 861.511645 567 
L 861.511645 77.76 
" style="fill:none;stroke:#b0b0b0;stroke-linecap:square;stroke-opacity:0.6;stroke-width:0.8;"/>
     </g>
     <g id="line2d_18">
      <g>
       <use style="stroke:#000000;stroke-width:0.8;" x="861.511645" xlink:href="#m44c0fcd87d" y="567"/>
      </g>
     </g>
     <g id="text_9">
      <!-- 9 -->
      <g transform="translate(859.011645 580.875)scale(0.1 -0.1)">
       <defs>
        <path d="M 12.5 1.171875 
Q 21.09375 15.625 26.5625 27.34375 
Q 16.796875 25.78125 10.34375 29.875 
Q 3.90625 33.984375 2.53125 41.015625 
Q 1.171875 48.046875 2.734375 53.703125 
Q 4.296875 59.375 7.609375 63.078125 
Q 10.9375 66.796875 15.625 68.359375 
Q 20.3125 69.921875 24.015625 69.921875 
Q 27.734375 69.921875 31.640625 68.359375 
Q 35.546875 66.796875 38.671875 63.671875 
Q 41.796875 60.546875 42.96875 57.21875 
Q 44.140625 53.90625 44.140625 48.625 
Q 44.140625 43.359375 40.234375 35.15625 
Q 36.328125 26.953125 21.09375 1.171875 
z
M 9.765625 50 
Q 10.9375 39.84375 14.640625 36.515625 
Q 18.359375 33.203125 22.65625 33.59375 
Q 26.953125 33.984375 29.484375 35.9375 
Q 32.03125 37.890625 34.375 42.578125 
Q 35.9375 48.4375 35.15625 52.53125 
Q 34.375 56.640625 31.046875 59.375 
Q 27.734375 62.109375 23.828125 62.109375 
Q 21.484375 62.5 17.765625 60.9375 
Q 14.0625 59.375 11.90625 54.6875 
Q 9.765625 50 10.9375 39.84375 
z
" id="SimHei-57"/>
       </defs>
       <use xlink:href="#SimHei-57"/>
      </g>
     </g>
    </g>
    <g id="xtick_10">
     <g id="line2d_19">
      <path clip-path="url(#p087a9d6bae)" d="M 928.589031 567 
L 928.589031 77.76 
" style="fill:none;stroke:#b0b0b0;stroke-linecap:square;stroke-opacity:0.6;stroke-width:0.8;"/>
     </g>
     <g id="line2d_20">
      <g>
       <use style="stroke:#000000;stroke-width:0.8;" x="928.589031" xlink:href="#m44c0fcd87d" y="567"/>
      </g>
     </g>
     <g id="text_10">
      <!-- 10 -->
      <g transform="translate(923.589031 580.875)scale(0.1 -0.1)">
       <defs>
        <path d="M 3.125 29.296875 
Q 3.90625 50 6.4375 56.046875 
Q 8.984375 62.109375 13.671875 66.015625 
Q 18.359375 69.921875 25.1875 69.921875 
Q 32.03125 69.921875 37.109375 64.25 
Q 42.1875 58.59375 43.75 50 
Q 45.3125 41.40625 44.71875 30.265625 
Q 44.140625 19.140625 40.8125 12.109375 
Q 37.5 5.078125 30.859375 2.34375 
Q 24.21875 -0.390625 17.578125 2.921875 
Q 10.9375 6.25 8.203125 11.71875 
Q 5.46875 17.1875 4.296875 23.234375 
Q 3.125 29.296875 3.90625 50 
z
M 12.890625 52.734375 
Q 10.546875 31.25 12.5 22.84375 
Q 14.453125 14.453125 18.9375 10.9375 
Q 23.4375 7.421875 28.125 9.5625 
Q 32.8125 11.71875 34.953125 18.15625 
Q 37.109375 24.609375 37.109375 32.21875 
Q 37.109375 39.84375 36.515625 46.09375 
Q 35.9375 52.34375 33 57.421875 
Q 30.078125 62.5 25.1875 62.6875 
Q 20.3125 62.890625 16.59375 57.8125 
Q 12.890625 52.734375 10.546875 31.25 
z
" id="SimHei-48"/>
       </defs>
       <use xlink:href="#SimHei-49"/>
       <use x="50" xlink:href="#SimHei-48"/>
      </g>
     </g>
    </g>
    <g id="xtick_11">
     <g id="line2d_21">
      <path clip-path="url(#p087a9d6bae)" d="M 995.666416 567 
L 995.666416 77.76 
" style="fill:none;stroke:#b0b0b0;stroke-linecap:square;stroke-opacity:0.6;stroke-width:0.8;"/>
     </g>
     <g id="line2d_22">
      <g>
       <use style="stroke:#000000;stroke-width:0.8;" x="995.666416" xlink:href="#m44c0fcd87d" y="567"/>
      </g>
     </g>
     <g id="text_11">
      <!-- 11 -->
      <g transform="translate(990.666416 580.875)scale(0.1 -0.1)">
       <use xlink:href="#SimHei-49"/>
       <use x="50" xlink:href="#SimHei-49"/>
      </g>
     </g>
    </g>
    <g id="xtick_12">
     <g id="line2d_23">
      <path clip-path="url(#p087a9d6bae)" d="M 1062.743802 567 
L 1062.743802 77.76 
" style="fill:none;stroke:#b0b0b0;stroke-linecap:square;stroke-opacity:0.6;stroke-width:0.8;"/>
     </g>
     <g id="line2d_24">
      <g>
       <use style="stroke:#000000;stroke-width:0.8;" x="1062.743802" xlink:href="#m44c0fcd87d" y="567"/>
      </g>
     </g>
     <g id="text_12">
      <!-- 12 -->
      <g transform="translate(1057.743802 580.875)scale(0.1 -0.1)">
       <use xlink:href="#SimHei-49"/>
       <use x="50" xlink:href="#SimHei-50"/>
      </g>
     </g>
    </g>
    <g id="text_13">
     <!-- 月份 -->
     <g transform="translate(683.818182 594.015625)scale(0.1 -0.1)">
      <defs>
       <path d="M 82.03125 75.390625 
Q 81.25 66.015625 81.25 58.59375 
L 81.25 3.125 
Q 81.25 -4.296875 77.34375 -5.859375 
Q 73.4375 -7.421875 62.109375 -8.203125 
Q 61.328125 -3.515625 58.59375 0.78125 
Q 67.1875 0.390625 70.5 0.78125 
Q 73.828125 1.171875 73.828125 6.25 
L 73.828125 25 
L 28.90625 25 
Q 26.953125 12.109375 22.65625 3.515625 
Q 18.359375 -5.078125 14.0625 -8.984375 
Q 10.9375 -6.25 6.25 -5.078125 
Q 12.5 0.390625 16.203125 8 
Q 19.921875 15.625 20.890625 23.046875 
Q 21.875 30.46875 21.875 39.453125 
L 21.875 56.640625 
Q 21.875 65.234375 21.484375 75.390625 
L 82.03125 75.390625 
z
M 73.828125 53.125 
L 73.828125 69.53125 
L 29.296875 69.53125 
L 29.296875 53.125 
z
M 73.828125 31.25 
L 73.828125 47.265625 
L 29.296875 47.265625 
L 29.296875 31.25 
z
" id="SimHei-26376"/>
       <path d="M 74.21875 79.6875 
Q 76.171875 68.359375 82.03125 57.03125 
Q 87.890625 45.703125 96.875 38.28125 
Q 94.140625 37.109375 90.234375 32.421875 
Q 87.5 35.546875 83.59375 40.234375 
Q 82.8125 35.546875 82.421875 20.5 
Q 82.03125 5.46875 81.046875 0.390625 
Q 80.078125 -4.6875 75.78125 -6.25 
Q 71.484375 -7.8125 63.671875 -8.59375 
Q 62.5 -3.90625 60.546875 0 
Q 68.75 -0.390625 71.484375 0.390625 
Q 74.21875 1.171875 74.609375 9.171875 
Q 75 17.1875 75.390625 35.15625 
L 57.8125 35.15625 
Q 57.421875 20.3125 53.515625 10.15625 
Q 49.609375 0 37.109375 -9.765625 
Q 33.984375 -5.46875 31.25 -3.515625 
Q 42.96875 3.515625 46.671875 12.5 
Q 50.390625 21.484375 50.390625 35.15625 
Q 46.875 35.15625 41.796875 34.765625 
L 41.796875 40.234375 
Q 38.671875 35.9375 33.59375 30.46875 
Q 31.25 33.59375 27.34375 35.9375 
Q 44.921875 51.171875 50.390625 76.171875 
Q 53.90625 74.609375 58.59375 73.046875 
Q 56.640625 68.75 53.515625 60.734375 
Q 50.390625 52.734375 43.359375 42.1875 
Q 47.65625 41.796875 53.125 41.796875 
L 82.8125 41.796875 
Q 71.484375 56.640625 66.796875 77.734375 
Q 71.484375 78.515625 74.21875 79.6875 
z
M 3.515625 39.453125 
Q 8.984375 44.921875 16.015625 57.609375 
Q 23.046875 70.3125 25.78125 81.640625 
Q 30.859375 79.296875 34.375 77.734375 
Q 32.03125 74.21875 25 58.984375 
L 25 9.765625 
Q 25 1.171875 25.390625 -8.984375 
L 17.1875 -8.984375 
Q 17.578125 0.78125 17.578125 9.765625 
L 17.578125 45.703125 
Q 12.109375 37.5 8.984375 33.984375 
Q 6.640625 36.71875 3.515625 39.453125 
z
" id="SimHei-20221"/>
      </defs>
      <use xlink:href="#SimHei-26376"/>
      <use x="100" xlink:href="#SimHei-20221"/>
     </g>
    </g>
   </g>
   <g id="matplotlib.axis_2">
    <g id="ytick_1">
     <g id="line2d_25">
      <path clip-path="url(#p087a9d6bae)" d="M 288 512.676879 
L 1099.636364 512.676879 
" style="fill:none;stroke:#b0b0b0;stroke-linecap:square;stroke-opacity:0.6;stroke-width:0.8;"/>
     </g>
     <g id="line2d_26">
      <defs>
       <path d="M 0 0 
L -3.5 0 
" id="mcce7e659cf" style="stroke:#000000;stroke-width:0.8;"/>
      </defs>
      <g>
       <use style="stroke:#000000;stroke-width:0.8;" x="288" xlink:href="#mcce7e659cf" y="512.676879"/>
      </g>
     </g>
     <g id="text_14">
      <!-- 500 -->
      <g transform="translate(266 516.114379)scale(0.1 -0.1)">
       <use xlink:href="#SimHei-53"/>
       <use x="50" xlink:href="#SimHei-48"/>
       <use x="100" xlink:href="#SimHei-48"/>
      </g>
     </g>
    </g>
    <g id="ytick_2">
     <g id="line2d_27">
      <path clip-path="url(#p087a9d6bae)" d="M 288 457.358019 
L 1099.636364 457.358019 
" style="fill:none;stroke:#b0b0b0;stroke-linecap:square;stroke-opacity:0.6;stroke-width:0.8;"/>
     </g>
     <g id="line2d_28">
      <g>
       <use style="stroke:#000000;stroke-width:0.8;" x="288" xlink:href="#mcce7e659cf" y="457.358019"/>
      </g>
     </g>
     <g id="text_15">
      <!-- 750 -->
      <g transform="translate(266 460.795519)scale(0.1 -0.1)">
       <use xlink:href="#SimHei-55"/>
       <use x="50" xlink:href="#SimHei-53"/>
       <use x="100" xlink:href="#SimHei-48"/>
      </g>
     </g>
    </g>
    <g id="ytick_3">
     <g id="line2d_29">
      <path clip-path="url(#p087a9d6bae)" d="M 288 402.039159 
L 1099.636364 402.039159 
" style="fill:none;stroke:#b0b0b0;stroke-linecap:square;stroke-opacity:0.6;stroke-width:0.8;"/>
     </g>
     <g id="line2d_30">
      <g>
       <use style="stroke:#000000;stroke-width:0.8;" x="288" xlink:href="#mcce7e659cf" y="402.039159"/>
      </g>
     </g>
     <g id="text_16">
      <!-- 1000 -->
      <g transform="translate(261 405.476659)scale(0.1 -0.1)">
       <use xlink:href="#SimHei-49"/>
       <use x="50" xlink:href="#SimHei-48"/>
       <use x="100" xlink:href="#SimHei-48"/>
       <use x="150" xlink:href="#SimHei-48"/>
      </g>
     </g>
    </g>
    <g id="ytick_4">
     <g id="line2d_31">
      <path clip-path="url(#p087a9d6bae)" d="M 288 346.720299 
L 1099.636364 346.720299 
" style="fill:none;stroke:#b0b0b0;stroke-linecap:square;stroke-opacity:0.6;stroke-width:0.8;"/>
     </g>
     <g id="line2d_32">
      <g>
       <use style="stroke:#000000;stroke-width:0.8;" x="288" xlink:href="#mcce7e659cf" y="346.720299"/>
      </g>
     </g>
     <g id="text_17">
      <!-- 1250 -->
      <g transform="translate(261 350.157799)scale(0.1 -0.1)">
       <use xlink:href="#SimHei-49"/>
       <use x="50" xlink:href="#SimHei-50"/>
       <use x="100" xlink:href="#SimHei-53"/>
       <use x="150" xlink:href="#SimHei-48"/>
      </g>
     </g>
    </g>
    <g id="ytick_5">
     <g id="line2d_33">
      <path clip-path="url(#p087a9d6bae)" d="M 288 291.401438 
L 1099.636364 291.401438 
" style="fill:none;stroke:#b0b0b0;stroke-linecap:square;stroke-opacity:0.6;stroke-width:0.8;"/>
     </g>
     <g id="line2d_34">
      <g>
       <use style="stroke:#000000;stroke-width:0.8;" x="288" xlink:href="#mcce7e659cf" y="291.401438"/>
      </g>
     </g>
     <g id="text_18">
      <!-- 1500 -->
      <g transform="translate(261 294.838938)scale(0.1 -0.1)">
       <use xlink:href="#SimHei-49"/>
       <use x="50" xlink:href="#SimHei-53"/>
       <use x="100" xlink:href="#SimHei-48"/>
       <use x="150" xlink:href="#SimHei-48"/>
      </g>
     </g>
    </g>
    <g id="ytick_6">
     <g id="line2d_35">
      <path clip-path="url(#p087a9d6bae)" d="M 288 236.082578 
L 1099.636364 236.082578 
" style="fill:none;stroke:#b0b0b0;stroke-linecap:square;stroke-opacity:0.6;stroke-width:0.8;"/>
     </g>
     <g id="line2d_36">
      <g>
       <use style="stroke:#000000;stroke-width:0.8;" x="288" xlink:href="#mcce7e659cf" y="236.082578"/>
      </g>
     </g>
     <g id="text_19">
      <!-- 1750 -->
      <g transform="translate(261 239.520078)scale(0.1 -0.1)">
       <use xlink:href="#SimHei-49"/>
       <use x="50" xlink:href="#SimHei-55"/>
       <use x="100" xlink:href="#SimHei-53"/>
       <use x="150" xlink:href="#SimHei-48"/>
      </g>
     </g>
    </g>
    <g id="ytick_7">
     <g id="line2d_37">
      <path clip-path="url(#p087a9d6bae)" d="M 288 180.763718 
L 1099.636364 180.763718 
" style="fill:none;stroke:#b0b0b0;stroke-linecap:square;stroke-opacity:0.6;stroke-width:0.8;"/>
     </g>
     <g id="line2d_38">
      <g>
       <use style="stroke:#000000;stroke-width:0.8;" x="288" xlink:href="#mcce7e659cf" y="180.763718"/>
      </g>
     </g>
     <g id="text_20">
      <!-- 2000 -->
      <g transform="translate(261 184.201218)scale(0.1 -0.1)">
       <use xlink:href="#SimHei-50"/>
       <use x="50" xlink:href="#SimHei-48"/>
       <use x="100" xlink:href="#SimHei-48"/>
       <use x="150" xlink:href="#SimHei-48"/>
      </g>
     </g>
    </g>
    <g id="ytick_8">
     <g id="line2d_39">
      <path clip-path="url(#p087a9d6bae)" d="M 288 125.444858 
L 1099.636364 125.444858 
" style="fill:none;stroke:#b0b0b0;stroke-linecap:square;stroke-opacity:0.6;stroke-width:0.8;"/>
     </g>
     <g id="line2d_40">
      <g>
       <use style="stroke:#000000;stroke-width:0.8;" x="288" xlink:href="#mcce7e659cf" y="125.444858"/>
      </g>
     </g>
     <g id="text_21">
      <!-- 2250 -->
      <g transform="translate(261 128.882358)scale(0.1 -0.1)">
       <use xlink:href="#SimHei-50"/>
       <use x="50" xlink:href="#SimHei-50"/>
       <use x="100" xlink:href="#SimHei-53"/>
       <use x="150" xlink:href="#SimHei-48"/>
      </g>
     </g>
    </g>
    <g id="text_22">
     <!-- 销量（件） -->
     <g transform="translate(255.75 347.38)rotate(-90)scale(0.1 -0.1)">
      <defs>
       <path d="M 65.234375 67.578125 
Q 65.234375 73.4375 64.84375 80.078125 
L 72.65625 80.078125 
Q 72.265625 75.78125 72.265625 67.578125 
L 72.265625 50.390625 
L 91.015625 50.390625 
Q 90.625 44.53125 90.625 34.765625 
L 90.625 0.78125 
Q 90.625 -4.6875 86.90625 -5.859375 
Q 83.203125 -7.03125 76.953125 -8.203125 
Q 76.171875 -4.296875 73.4375 -0.390625 
Q 82.421875 0 82.8125 1.75 
Q 83.203125 3.515625 83.203125 12.890625 
L 55.859375 12.890625 
L 55.859375 -7.03125 
L 48.4375 -7.03125 
Q 48.828125 1.171875 48.828125 6.25 
L 48.828125 33.984375 
Q 48.828125 43.75 48.4375 50.390625 
L 65.234375 50.390625 
z
M 36.71875 42.1875 
Q 31.640625 42.578125 26.5625 42.578125 
L 26.5625 30.859375 
Q 33.203125 30.859375 40.625 31.25 
L 40.625 24.21875 
Q 33.203125 24.609375 26.5625 24.609375 
L 26.5625 6.640625 
Q 30.078125 8.984375 35.15625 14.453125 
Q 36.328125 10.9375 39.0625 7.421875 
Q 35.15625 4.6875 30.859375 1.359375 
Q 26.5625 -1.953125 21.875 -7.03125 
Q 19.921875 -3.515625 16.796875 -0.78125 
Q 19.140625 1.5625 19.53125 6.25 
L 19.53125 24.609375 
Q 14.84375 24.609375 8.203125 24.21875 
L 8.203125 31.25 
Q 14.84375 30.859375 19.53125 30.859375 
L 19.53125 42.578125 
Q 14.84375 42.578125 11.71875 42.1875 
L 11.71875 49.21875 
Q 16.796875 48.828125 23.4375 48.828125 
Q 30.46875 48.828125 36.71875 49.21875 
z
M 9.765625 48.046875 
Q 7.03125 51.171875 3.515625 52.734375 
Q 9.375 58.59375 13.671875 65.625 
Q 17.96875 72.65625 20.703125 80.078125 
Q 26.171875 76.953125 29.296875 75.78125 
Q 24.21875 68.75 22.65625 65.625 
Q 32.421875 65.625 39.0625 66.015625 
L 39.0625 58.59375 
Q 32.421875 58.984375 18.75 58.984375 
Q 12.890625 51.171875 9.765625 48.046875 
z
M 83.203125 34.375 
L 83.203125 44.53125 
L 55.859375 44.53125 
L 55.859375 34.375 
z
M 83.203125 18.75 
L 83.203125 28.515625 
L 55.859375 28.515625 
L 55.859375 18.75 
z
M 94.53125 71.09375 
Q 91.40625 67.1875 85.15625 55.078125 
Q 81.640625 57.03125 77.734375 58.203125 
Q 82.03125 63.28125 86.328125 74.609375 
Q 89.453125 72.65625 94.53125 71.09375 
z
M 50 74.609375 
Q 56.25 64.84375 59.375 59.375 
Q 55.859375 57.8125 52.34375 55.46875 
Q 49.609375 61.71875 43.359375 70.703125 
Q 47.265625 72.265625 50 74.609375 
z
" id="SimHei-38144"/>
       <path d="M 82.03125 39.0625 
Q 81.640625 34.375 81.640625 26.5625 
Q 81.640625 19.140625 82.03125 14.84375 
L 53.515625 14.84375 
L 53.515625 9.765625 
L 71.484375 9.765625 
Q 78.125 9.765625 83.984375 10.15625 
L 83.984375 4.296875 
Q 78.515625 4.6875 71.484375 4.6875 
L 53.515625 4.6875 
L 53.515625 -1.171875 
L 80.078125 -1.171875 
Q 86.328125 -1.171875 92.578125 -0.78125 
L 92.578125 -6.640625 
Q 86.328125 -6.25 80.078125 -6.25 
L 19.921875 -6.25 
Q 14.0625 -6.25 7.421875 -6.640625 
L 7.421875 -0.78125 
Q 14.453125 -0.78125 19.921875 -1.171875 
L 46.484375 -1.171875 
L 46.484375 4.6875 
L 26.953125 4.6875 
Q 21.09375 4.6875 15.234375 3.90625 
L 15.234375 10.15625 
Q 21.484375 9.765625 26.953125 9.765625 
L 46.484375 9.765625 
L 46.484375 14.84375 
L 17.96875 14.84375 
Q 18.359375 21.484375 18.359375 27.734375 
Q 18.359375 33.984375 17.96875 39.0625 
L 82.03125 39.0625 
z
M 81.25 77.34375 
Q 80.859375 71.484375 80.859375 66.40625 
Q 80.859375 61.328125 81.25 53.125 
L 18.75 53.125 
Q 19.140625 61.328125 19.140625 66.40625 
Q 19.140625 71.484375 18.75 77.34375 
L 81.25 77.34375 
z
M 76.5625 48.4375 
Q 85.9375 48.828125 93.75 49.21875 
L 93.75 42.96875 
Q 85.9375 43.359375 76.953125 43.359375 
L 25.78125 43.359375 
Q 15.234375 43.359375 5.078125 42.96875 
L 5.078125 49.21875 
Q 15.234375 48.828125 25.78125 48.4375 
z
M 73.828125 57.8125 
L 73.828125 62.890625 
L 26.171875 62.890625 
L 26.171875 57.8125 
z
M 73.828125 67.96875 
L 73.828125 72.65625 
L 26.171875 72.65625 
L 26.171875 67.96875 
z
M 74.21875 29.296875 
L 74.21875 33.984375 
L 53.515625 33.984375 
L 53.515625 29.296875 
z
M 46.484375 29.296875 
L 46.484375 33.984375 
L 25.78125 33.984375 
L 25.78125 29.296875 
z
M 46.484375 19.921875 
L 46.484375 24.21875 
L 25.78125 24.21875 
L 25.78125 19.921875 
z
M 74.21875 19.921875 
L 74.21875 24.21875 
L 53.515625 24.21875 
L 53.515625 19.921875 
z
" id="SimHei-37327"/>
       <path d="M 84.765625 79.6875 
L 89.0625 74.609375 
Q 66.796875 58.203125 67.578125 36.71875 
Q 67.96875 16.015625 88.671875 0.78125 
L 84.375 -4.296875 
Q 60.546875 12.890625 61.328125 39.0625 
Q 61.328125 60.546875 84.765625 79.6875 
z
" id="SimHei-65288"/>
       <path d="M 51.171875 69.921875 
Q 49.21875 68.359375 45.703125 58.984375 
L 60.9375 58.984375 
L 60.9375 66.796875 
Q 60.9375 76.5625 60.546875 80.078125 
L 68.75 80.078125 
Q 68.359375 76.953125 68.359375 67.1875 
L 68.359375 58.984375 
L 80.078125 58.984375 
Q 85.15625 58.984375 89.453125 59.375 
L 89.453125 51.953125 
Q 85.15625 52.34375 80.078125 52.34375 
L 68.359375 52.34375 
L 68.359375 31.25 
L 81.25 31.25 
Q 87.109375 31.25 95.3125 31.640625 
L 95.3125 24.21875 
Q 88.671875 24.609375 80.859375 24.609375 
L 68.359375 24.609375 
L 68.359375 4.296875 
Q 68.359375 -1.5625 68.75 -8.59375 
L 60.546875 -8.59375 
Q 60.9375 -1.5625 60.9375 4.296875 
L 60.9375 24.609375 
L 45.703125 24.609375 
Q 39.0625 24.609375 30.078125 24.21875 
L 30.078125 31.640625 
Q 38.671875 31.25 44.140625 31.25 
L 60.9375 31.25 
L 60.9375 52.34375 
L 43.359375 52.34375 
Q 42.1875 49.21875 36.71875 37.890625 
Q 35.546875 39.0625 29.6875 41.40625 
Q 33.59375 47.265625 36.71875 54.6875 
Q 39.84375 62.109375 42.1875 73.4375 
Q 45.3125 71.484375 51.171875 69.921875 
z
M 17.96875 50 
Q 14.0625 44.140625 8.59375 37.109375 
Q 6.640625 41.015625 3.125 42.96875 
Q 10.15625 50 16.015625 60.15625 
Q 21.875 70.3125 25.78125 82.03125 
Q 30.46875 78.90625 33.984375 77.734375 
Q 31.25 75.390625 25.390625 62.890625 
L 25.390625 9.765625 
Q 25.390625 -2.734375 25.78125 -8.984375 
L 17.578125 -8.984375 
Q 17.96875 -3.515625 17.96875 9.375 
z
" id="SimHei-20214"/>
       <path d="M 15.625 79.6875 
Q 39.0625 60.546875 39.0625 39.0625 
Q 39.84375 12.890625 16.015625 -4.296875 
L 11.71875 0.78125 
Q 32.421875 16.015625 32.8125 36.71875 
Q 33.59375 58.203125 11.328125 74.609375 
L 15.625 79.6875 
z
" id="SimHei-65289"/>
      </defs>
      <use xlink:href="#SimHei-38144"/>
      <use x="100" xlink:href="#SimHei-37327"/>
      <use x="200" xlink:href="#SimHei-65288"/>
      <use x="300" xlink:href="#SimHei-20214"/>
      <use x="400" xlink:href="#SimHei-65289"/>
     </g>
    </g>
   </g>
   <g id="line2d_41">
    <path clip-path="url(#p087a9d6bae)" d="M 727.356875 492.098263 
L 794.43426 475.723881 
L 861.511645 424.609254 
L 928.589031 419.298643 
L 995.666416 394.737069 
L 1062.743802 404.030638 
" style="fill:none;stroke:#1f77b4;stroke-linecap:square;stroke-width:1.5;"/>
   </g>
   <g id="line2d_42">
    <path clip-path="url(#p087a9d6bae)" d="M 324.892562 426.158182 
L 391.969947 511.127951 
L 459.047333 390.090285 
L 526.124718 378.583962 
L 593.202104 293.171642 
L 660.279489 397.171099 
L 727.356875 400.268955 
L 794.43426 376.813758 
L 861.511645 321.494898 
L 928.589031 337.869281 
L 995.666416 288.746133 
L 1062.743802 298.924803 
" style="fill:none;stroke:#ff7f0e;stroke-linecap:square;stroke-width:1.5;"/>
   </g>
   <g id="line2d_43">
    <path clip-path="url(#p087a9d6bae)" d="M 324.892562 388.983908 
L 391.969947 372.830801 
L 459.047333 275.469607 
L 526.124718 234.754925 
L 593.202104 125.887408 
L 660.279489 281.444043 
L 727.356875 307.554545 
L 794.43426 260.865427 
L 861.511645 196.916825 
L 928.589031 186.95943 
L 995.666416 99.998182 
L 1062.743802 142.483066 
" style="fill:none;stroke:#2ca02c;stroke-linecap:square;stroke-width:1.5;"/>
   </g>
   <g id="line2d_44">
    <path clip-path="url(#p087a9d6bae)" d="M 324.892562 210.635902 
L 391.969947 544.761818 
" style="fill:none;stroke:#d62728;stroke-linecap:square;stroke-width:1.5;"/>
   </g>
   <g id="patch_3">
    <path d="M 288 567 
L 288 77.76 
" style="fill:none;stroke:#000000;stroke-linecap:square;stroke-linejoin:miter;stroke-width:0.8;"/>
   </g>
   <g id="patch_4">
    <path d="M 1099.636364 567 
L 1099.636364 77.76 
" style="fill:none;stroke:#000000;stroke-linecap:square;stroke-linejoin:miter;stroke-width:0.8;"/>
   </g>
   <g id="patch_5">
    <path d="M 288 567 
L 1099.636364 567 
" style="fill:none;stroke:#000000;stroke-linecap:square;stroke-linejoin:miter;stroke-width:0.8;"/>
   </g>
   <g id="patch_6">
    <path d="M 288 77.76 
L 1099.636364 77.76 
" style="fill:none;stroke:#000000;stroke-linecap:square;stroke-linejoin:miter;stroke-width:0.8;"/>
   </g>
   <g id="text_23">
    <!-- 月度销量情况 -->
    <g transform="translate(657.818182 71.76)scale(0.12 -0.12)">
     <defs>
      <path d="M 27.34375 26.171875 
Q 38.28125 25.78125 44.921875 25.78125 
L 81.25 25.78125 
Q 77.734375 19.53125 72.65625 13.28125 
Q 67.578125 7.03125 62.890625 3.125 
Q 67.96875 0.78125 77.34375 -0.78125 
Q 86.71875 -2.34375 95.3125 -2.34375 
Q 92.96875 -4.6875 91.015625 -10.15625 
Q 79.6875 -8.59375 71.09375 -6.4375 
Q 62.5 -4.296875 56.640625 -1.5625 
Q 48.4375 -5.078125 40.421875 -7.21875 
Q 32.421875 -9.375 23.828125 -10.546875 
Q 22.65625 -7.421875 19.140625 -3.90625 
Q 26.171875 -3.90625 35.15625 -1.953125 
Q 44.140625 0 50.78125 3.125 
Q 44.140625 8.59375 37.5 19.921875 
L 27.34375 19.53125 
z
M 46.484375 79.296875 
Q 50.78125 80.46875 54.296875 82.03125 
Q 56.640625 77.734375 58.984375 70.703125 
L 73.4375 70.703125 
Q 77.734375 70.703125 89.0625 71.09375 
L 89.0625 64.0625 
Q 78.125 64.453125 72.65625 64.453125 
L 21.484375 64.453125 
Q 21.484375 46.875 21.09375 36.125 
Q 20.703125 25.390625 18.9375 14.84375 
Q 17.1875 4.296875 11.328125 -8.203125 
Q 7.8125 -5.859375 3.90625 -4.6875 
Q 10.15625 6.25 11.90625 16.796875 
Q 13.671875 27.34375 13.859375 43.75 
Q 14.0625 60.15625 13.671875 70.703125 
L 50 70.703125 
Q 48.4375 75.78125 46.484375 79.296875 
z
M 38.671875 51.5625 
Q 38.671875 57.8125 38.28125 61.328125 
L 46.484375 61.328125 
Q 46.09375 58.203125 46.09375 51.5625 
L 67.1875 51.5625 
Q 67.1875 57.8125 66.796875 61.71875 
L 75 61.71875 
Q 74.609375 57.03125 74.609375 51.5625 
Q 83.203125 51.5625 89.453125 51.953125 
L 89.453125 45.3125 
Q 83.59375 45.703125 74.609375 45.703125 
Q 74.609375 35.15625 75 30.46875 
L 38.28125 30.46875 
Q 38.671875 36.71875 38.671875 45.703125 
Q 33.984375 45.703125 25 45.3125 
L 25 51.953125 
Q 33.984375 51.5625 38.671875 51.5625 
z
M 67.1875 36.71875 
L 67.1875 45.703125 
L 46.09375 45.703125 
L 46.09375 36.71875 
z
M 44.921875 19.921875 
Q 50 12.109375 57.03125 6.640625 
Q 62.890625 10.9375 69.140625 19.921875 
L 45.3125 19.921875 
z
" id="SimHei-24230"/>
      <path d="M 43.359375 23.046875 
Q 43.359375 32.03125 42.96875 39.453125 
L 87.5 39.453125 
Q 87.109375 32.8125 87.109375 26.953125 
L 87.109375 -2.34375 
Q 87.109375 -6.640625 83.984375 -7.8125 
Q 80.859375 -8.984375 76.171875 -9.765625 
Q 75.78125 -6.25 73.4375 -2.34375 
Q 78.90625 -2.34375 79.6875 -1.171875 
Q 80.46875 0 80.46875 7.421875 
L 50.390625 7.421875 
L 50.390625 -9.765625 
L 42.96875 -9.765625 
Q 43.359375 -0.78125 43.359375 5.859375 
z
M 37.109375 50.78125 
Q 46.484375 50.390625 54.296875 50.390625 
L 62.109375 50.390625 
L 62.109375 56.640625 
L 54.6875 56.640625 
Q 48.046875 56.640625 41.015625 56.25 
L 41.015625 62.890625 
Q 48.046875 62.5 54.6875 62.5 
L 62.109375 62.5 
L 62.109375 67.96875 
L 53.90625 67.96875 
Q 47.65625 67.96875 38.671875 67.578125 
L 38.671875 74.21875 
Q 48.046875 73.828125 53.90625 73.828125 
L 62.109375 73.828125 
Q 62.109375 77.734375 61.71875 81.640625 
L 69.921875 81.640625 
Q 69.53125 77.734375 69.53125 73.828125 
L 80.078125 73.828125 
Q 86.71875 73.828125 92.578125 74.21875 
L 92.578125 67.578125 
Q 86.71875 67.96875 80.078125 67.96875 
L 69.53125 67.96875 
L 69.53125 62.5 
L 76.953125 62.5 
Q 83.203125 62.5 89.84375 62.890625 
L 89.84375 56.25 
Q 82.8125 56.640625 76.953125 56.640625 
L 69.53125 56.640625 
L 69.53125 50.390625 
L 80.859375 50.390625 
Q 90.234375 50.390625 96.09375 50.78125 
L 96.09375 44.140625 
Q 90.234375 44.53125 80.46875 44.53125 
L 54.6875 44.53125 
Q 44.53125 44.53125 37.109375 44.140625 
z
M 26.171875 81.640625 
Q 25.78125 75 25.78125 68.75 
L 25.78125 6.640625 
Q 25.78125 -1.5625 26.171875 -9.375 
L 17.96875 -9.375 
Q 18.75 -1.5625 18.75 6.640625 
L 18.75 67.578125 
Q 18.75 75.390625 17.96875 81.640625 
L 26.171875 81.640625 
z
M 80.078125 13.28125 
L 80.078125 20.703125 
L 50.390625 20.703125 
L 50.390625 13.28125 
z
M 80.078125 26.5625 
L 80.078125 33.59375 
L 50.390625 33.59375 
L 50.390625 26.5625 
z
M 16.40625 60.9375 
Q 15.625 57.421875 11.328125 35.546875 
Q 7.8125 36.71875 3.90625 37.109375 
Q 6.640625 42.96875 8.984375 62.109375 
Q 12.5 61.328125 16.40625 60.9375 
z
M 30.859375 48.828125 
Q 30.078125 53.515625 27.734375 62.109375 
Q 30.46875 62.5 34.375 63.671875 
Q 36.71875 55.46875 38.28125 51.171875 
Q 33.984375 50 30.859375 48.828125 
z
" id="SimHei-24773"/>
      <path d="M 85.15625 76.171875 
Q 84.765625 70.3125 84.765625 57.421875 
Q 84.765625 44.53125 85.15625 37.109375 
L 71.484375 37.109375 
L 71.484375 6.25 
Q 71.484375 0.78125 74.40625 0.390625 
Q 77.34375 0 81.25 0.1875 
Q 85.15625 0.390625 85.9375 2.921875 
Q 86.71875 5.46875 87.109375 12.890625 
Q 91.40625 10.546875 96.09375 9.375 
Q 93.359375 -2.734375 90.234375 -4.484375 
Q 87.109375 -6.25 80.859375 -6.4375 
Q 74.609375 -6.640625 69.328125 -5.65625 
Q 64.0625 -4.6875 64.0625 3.125 
L 64.0625 37.109375 
L 54.296875 37.109375 
Q 54.6875 2.34375 25 -9.765625 
Q 23.828125 -5.859375 19.921875 -2.34375 
Q 46.875 5.859375 46.875 37.109375 
L 36.328125 37.109375 
Q 36.71875 44.53125 36.71875 57.421875 
Q 36.71875 70.703125 36.328125 76.171875 
L 85.15625 76.171875 
z
M 76.5625 43.359375 
L 76.5625 69.921875 
L 44.53125 69.921875 
L 44.53125 43.359375 
z
M 31.640625 34.375 
Q 27.34375 26.953125 21.09375 15.625 
Q 14.84375 4.296875 12.109375 0 
Q 8.203125 2.734375 4.6875 4.6875 
Q 12.5 15.234375 25 39.0625 
Q 28.90625 35.9375 31.640625 34.375 
z
M 14.84375 77.34375 
Q 17.1875 74.609375 21.09375 69.71875 
Q 25 64.84375 28.90625 59.375 
Q 24.609375 56.640625 21.484375 53.90625 
Q 16.796875 62.890625 8.203125 71.875 
Q 12.109375 75.390625 14.84375 77.34375 
z
" id="SimHei-20917"/>
     </defs>
     <use xlink:href="#SimHei-26376"/>
     <use x="100" xlink:href="#SimHei-24230"/>
     <use x="200" xlink:href="#SimHei-38144"/>
     <use x="300" xlink:href="#SimHei-37327"/>
     <use x="400" xlink:href="#SimHei-24773"/>
     <use x="500" xlink:href="#SimHei-20917"/>
    </g>
   </g>
   <g id="legend_1">
    <g id="patch_7">
     <path d="M 295 142.635 
L 357 142.635 
Q 359 142.635 359 140.635 
L 359 84.76 
Q 359 82.76 357 82.76 
L 295 82.76 
Q 293 82.76 293 84.76 
L 293 140.635 
Q 293 142.635 295 142.635 
z
" style="fill:#ffffff;opacity:0.8;stroke:#cccccc;stroke-linejoin:miter;"/>
    </g>
    <g id="line2d_45">
     <path d="M 297 91.22875 
L 317 91.22875 
" style="fill:none;stroke:#1f77b4;stroke-linecap:square;stroke-width:1.5;"/>
    </g>
    <g id="line2d_46"/>
    <g id="text_24">
     <!-- 2012年 -->
     <g transform="translate(325 94.72875)scale(0.1 -0.1)">
      <defs>
       <path d="M 5.46875 45.703125 
Q 14.0625 53.90625 21.484375 65.625 
Q 28.90625 77.34375 29.6875 82.421875 
Q 35.546875 80.078125 40.625 78.90625 
Q 37.109375 75.390625 32.8125 67.578125 
L 72.265625 67.578125 
Q 80.859375 67.578125 89.84375 67.96875 
L 89.84375 61.328125 
Q 81.640625 61.71875 72.265625 61.71875 
L 59.375 61.71875 
L 59.375 45.703125 
Q 74.21875 45.703125 85.546875 46.09375 
L 85.546875 39.453125 
Q 73.828125 39.84375 59.375 39.84375 
L 59.375 21.484375 
L 79.296875 21.484375 
Q 87.890625 21.484375 95.3125 21.875 
L 95.3125 15.234375 
Q 88.28125 15.625 79.296875 15.625 
L 59.375 15.625 
L 59.375 6.640625 
Q 59.375 -2.34375 59.765625 -9.765625 
L 51.171875 -9.765625 
Q 51.5625 -2.34375 51.5625 5.859375 
L 51.5625 15.625 
L 25 15.625 
Q 14.0625 15.625 4.296875 15.234375 
L 4.296875 21.875 
Q 13.671875 21.484375 22.65625 21.484375 
Q 22.65625 36.71875 22.265625 45.703125 
L 51.5625 45.703125 
L 51.5625 61.71875 
L 29.296875 61.71875 
Q 21.09375 49.21875 14.453125 41.40625 
Q 10.15625 44.921875 5.46875 45.703125 
z
M 51.5625 21.484375 
L 51.5625 39.84375 
L 30.078125 39.84375 
L 30.078125 21.484375 
z
" id="SimHei-24180"/>
      </defs>
      <use xlink:href="#SimHei-50"/>
      <use x="50" xlink:href="#SimHei-48"/>
      <use x="100" xlink:href="#SimHei-49"/>
      <use x="150" xlink:href="#SimHei-50"/>
      <use x="200" xlink:href="#SimHei-24180"/>
     </g>
    </g>
    <g id="line2d_47">
     <path d="M 297 105.4475 
L 317 105.4475 
" style="fill:none;stroke:#ff7f0e;stroke-linecap:square;stroke-width:1.5;"/>
    </g>
    <g id="line2d_48"/>
    <g id="text_25">
     <!-- 2013年 -->
     <g transform="translate(325 108.9475)scale(0.1 -0.1)">
      <use xlink:href="#SimHei-50"/>
      <use x="50" xlink:href="#SimHei-48"/>
      <use x="100" xlink:href="#SimHei-49"/>
      <use x="150" xlink:href="#SimHei-51"/>
      <use x="200" xlink:href="#SimHei-24180"/>
     </g>
    </g>
    <g id="line2d_49">
     <path d="M 297 119.66625 
L 317 119.66625 
" style="fill:none;stroke:#2ca02c;stroke-linecap:square;stroke-width:1.5;"/>
    </g>
    <g id="line2d_50"/>
    <g id="text_26">
     <!-- 2014年 -->
     <g transform="translate(325 123.16625)scale(0.1 -0.1)">
      <use xlink:href="#SimHei-50"/>
      <use x="50" xlink:href="#SimHei-48"/>
      <use x="100" xlink:href="#SimHei-49"/>
      <use x="150" xlink:href="#SimHei-52"/>
      <use x="200" xlink:href="#SimHei-24180"/>
     </g>
    </g>
    <g id="line2d_51">
     <path d="M 297 133.885 
L 317 133.885 
" style="fill:none;stroke:#d62728;stroke-linecap:square;stroke-width:1.5;"/>
    </g>
    <g id="line2d_52"/>
    <g id="text_27">
     <!-- 2015年 -->
     <g transform="translate(325 137.385)scale(0.1 -0.1)">
      <use xlink:href="#SimHei-50"/>
      <use x="50" xlink:href="#SimHei-48"/>
      <use x="100" xlink:href="#SimHei-49"/>
      <use x="150" xlink:href="#SimHei-53"/>
      <use x="200" xlink:href="#SimHei-24180"/>
     </g>
    </g>
   </g>
  </g>
  <g id="axes_2">
   <g id="patch_8">
    <path d="M 1261.963636 567 
L 2073.6 567 
L 2073.6 77.76 
L 1261.963636 77.76 
z
" style="fill:#ffffff;"/>
   </g>
   <g id="matplotlib.axis_3">
    <g id="xtick_13">
     <g id="line2d_53">
      <path clip-path="url(#p504f7ed878)" d="M 1298.856198 567 
L 1298.856198 77.76 
" style="fill:none;stroke:#b0b0b0;stroke-linecap:square;stroke-opacity:0.6;stroke-width:0.8;"/>
     </g>
     <g id="line2d_54">
      <g>
       <use style="stroke:#000000;stroke-width:0.8;" x="1298.856198" xlink:href="#m44c0fcd87d" y="567"/>
      </g>
     </g>
     <g id="text_28">
      <!-- 1 -->
      <g transform="translate(1296.356198 580.875)scale(0.1 -0.1)">
       <use xlink:href="#SimHei-49"/>
      </g>
     </g>
    </g>
    <g id="xtick_14">
     <g id="line2d_55">
      <path clip-path="url(#p504f7ed878)" d="M 1365.933584 567 
L 1365.933584 77.76 
" style="fill:none;stroke:#b0b0b0;stroke-linecap:square;stroke-opacity:0.6;stroke-width:0.8;"/>
     </g>
     <g id="line2d_56">
      <g>
       <use style="stroke:#000000;stroke-width:0.8;" x="1365.933584" xlink:href="#m44c0fcd87d" y="567"/>
      </g>
     </g>
     <g id="text_29">
      <!-- 2 -->
      <g transform="translate(1363.433584 580.875)scale(0.1 -0.1)">
       <use xlink:href="#SimHei-50"/>
      </g>
     </g>
    </g>
    <g id="xtick_15">
     <g id="line2d_57">
      <path clip-path="url(#p504f7ed878)" d="M 1433.010969 567 
L 1433.010969 77.76 
" style="fill:none;stroke:#b0b0b0;stroke-linecap:square;stroke-opacity:0.6;stroke-width:0.8;"/>
     </g>
     <g id="line2d_58">
      <g>
       <use style="stroke:#000000;stroke-width:0.8;" x="1433.010969" xlink:href="#m44c0fcd87d" y="567"/>
      </g>
     </g>
     <g id="text_30">
      <!-- 3 -->
      <g transform="translate(1430.510969 580.875)scale(0.1 -0.1)">
       <use xlink:href="#SimHei-51"/>
      </g>
     </g>
    </g>
    <g id="xtick_16">
     <g id="line2d_59">
      <path clip-path="url(#p504f7ed878)" d="M 1500.088355 567 
L 1500.088355 77.76 
" style="fill:none;stroke:#b0b0b0;stroke-linecap:square;stroke-opacity:0.6;stroke-width:0.8;"/>
     </g>
     <g id="line2d_60">
      <g>
       <use style="stroke:#000000;stroke-width:0.8;" x="1500.088355" xlink:href="#m44c0fcd87d" y="567"/>
      </g>
     </g>
     <g id="text_31">
      <!-- 4 -->
      <g transform="translate(1497.588355 580.875)scale(0.1 -0.1)">
       <use xlink:href="#SimHei-52"/>
      </g>
     </g>
    </g>
    <g id="xtick_17">
     <g id="line2d_61">
      <path clip-path="url(#p504f7ed878)" d="M 1567.16574 567 
L 1567.16574 77.76 
" style="fill:none;stroke:#b0b0b0;stroke-linecap:square;stroke-opacity:0.6;stroke-width:0.8;"/>
     </g>
     <g id="line2d_62">
      <g>
       <use style="stroke:#000000;stroke-width:0.8;" x="1567.16574" xlink:href="#m44c0fcd87d" y="567"/>
      </g>
     </g>
     <g id="text_32">
      <!-- 5 -->
      <g transform="translate(1564.66574 580.875)scale(0.1 -0.1)">
       <use xlink:href="#SimHei-53"/>
      </g>
     </g>
    </g>
    <g id="xtick_18">
     <g id="line2d_63">
      <path clip-path="url(#p504f7ed878)" d="M 1634.243125 567 
L 1634.243125 77.76 
" style="fill:none;stroke:#b0b0b0;stroke-linecap:square;stroke-opacity:0.6;stroke-width:0.8;"/>
     </g>
     <g id="line2d_64">
      <g>
       <use style="stroke:#000000;stroke-width:0.8;" x="1634.243125" xlink:href="#m44c0fcd87d" y="567"/>
      </g>
     </g>
     <g id="text_33">
      <!-- 6 -->
      <g transform="translate(1631.743125 580.875)scale(0.1 -0.1)">
       <use xlink:href="#SimHei-54"/>
      </g>
     </g>
    </g>
    <g id="xtick_19">
     <g id="line2d_65">
      <path clip-path="url(#p504f7ed878)" d="M 1701.320511 567 
L 1701.320511 77.76 
" style="fill:none;stroke:#b0b0b0;stroke-linecap:square;stroke-opacity:0.6;stroke-width:0.8;"/>
     </g>
     <g id="line2d_66">
      <g>
       <use style="stroke:#000000;stroke-width:0.8;" x="1701.320511" xlink:href="#m44c0fcd87d" y="567"/>
      </g>
     </g>
     <g id="text_34">
      <!-- 7 -->
      <g transform="translate(1698.820511 580.875)scale(0.1 -0.1)">
       <use xlink:href="#SimHei-55"/>
      </g>
     </g>
    </g>
    <g id="xtick_20">
     <g id="line2d_67">
      <path clip-path="url(#p504f7ed878)" d="M 1768.397896 567 
L 1768.397896 77.76 
" style="fill:none;stroke:#b0b0b0;stroke-linecap:square;stroke-opacity:0.6;stroke-width:0.8;"/>
     </g>
     <g id="line2d_68">
      <g>
       <use style="stroke:#000000;stroke-width:0.8;" x="1768.397896" xlink:href="#m44c0fcd87d" y="567"/>
      </g>
     </g>
     <g id="text_35">
      <!-- 8 -->
      <g transform="translate(1765.897896 580.875)scale(0.1 -0.1)">
       <use xlink:href="#SimHei-56"/>
      </g>
     </g>
    </g>
    <g id="xtick_21">
     <g id="line2d_69">
      <path clip-path="url(#p504f7ed878)" d="M 1835.475282 567 
L 1835.475282 77.76 
" style="fill:none;stroke:#b0b0b0;stroke-linecap:square;stroke-opacity:0.6;stroke-width:0.8;"/>
     </g>
     <g id="line2d_70">
      <g>
       <use style="stroke:#000000;stroke-width:0.8;" x="1835.475282" xlink:href="#m44c0fcd87d" y="567"/>
      </g>
     </g>
     <g id="text_36">
      <!-- 9 -->
      <g transform="translate(1832.975282 580.875)scale(0.1 -0.1)">
       <use xlink:href="#SimHei-57"/>
      </g>
     </g>
    </g>
    <g id="xtick_22">
     <g id="line2d_71">
      <path clip-path="url(#p504f7ed878)" d="M 1902.552667 567 
L 1902.552667 77.76 
" style="fill:none;stroke:#b0b0b0;stroke-linecap:square;stroke-opacity:0.6;stroke-width:0.8;"/>
     </g>
     <g id="line2d_72">
      <g>
       <use style="stroke:#000000;stroke-width:0.8;" x="1902.552667" xlink:href="#m44c0fcd87d" y="567"/>
      </g>
     </g>
     <g id="text_37">
      <!-- 10 -->
      <g transform="translate(1897.552667 580.875)scale(0.1 -0.1)">
       <use xlink:href="#SimHei-49"/>
       <use x="50" xlink:href="#SimHei-48"/>
      </g>
     </g>
    </g>
    <g id="xtick_23">
     <g id="line2d_73">
      <path clip-path="url(#p504f7ed878)" d="M 1969.630053 567 
L 1969.630053 77.76 
" style="fill:none;stroke:#b0b0b0;stroke-linecap:square;stroke-opacity:0.6;stroke-width:0.8;"/>
     </g>
     <g id="line2d_74">
      <g>
       <use style="stroke:#000000;stroke-width:0.8;" x="1969.630053" xlink:href="#m44c0fcd87d" y="567"/>
      </g>
     </g>
     <g id="text_38">
      <!-- 11 -->
      <g transform="translate(1964.630053 580.875)scale(0.1 -0.1)">
       <use xlink:href="#SimHei-49"/>
       <use x="50" xlink:href="#SimHei-49"/>
      </g>
     </g>
    </g>
    <g id="xtick_24">
     <g id="line2d_75">
      <path clip-path="url(#p504f7ed878)" d="M 2036.707438 567 
L 2036.707438 77.76 
" style="fill:none;stroke:#b0b0b0;stroke-linecap:square;stroke-opacity:0.6;stroke-width:0.8;"/>
     </g>
     <g id="line2d_76">
      <g>
       <use style="stroke:#000000;stroke-width:0.8;" x="2036.707438" xlink:href="#m44c0fcd87d" y="567"/>
      </g>
     </g>
     <g id="text_39">
      <!-- 12 -->
      <g transform="translate(2031.707438 580.875)scale(0.1 -0.1)">
       <use xlink:href="#SimHei-49"/>
       <use x="50" xlink:href="#SimHei-50"/>
      </g>
     </g>
    </g>
    <g id="text_40">
     <!-- 月份 -->
     <g transform="translate(1657.781818 594.015625)scale(0.1 -0.1)">
      <use xlink:href="#SimHei-26376"/>
      <use x="100" xlink:href="#SimHei-20221"/>
     </g>
    </g>
   </g>
   <g id="matplotlib.axis_4">
    <g id="ytick_9">
     <g id="line2d_77">
      <path clip-path="url(#p504f7ed878)" d="M 1261.963636 559.502218 
L 2073.6 559.502218 
" style="fill:none;stroke:#b0b0b0;stroke-linecap:square;stroke-opacity:0.6;stroke-width:0.8;"/>
     </g>
     <g id="line2d_78">
      <g>
       <use style="stroke:#000000;stroke-width:0.8;" x="1261.963636" xlink:href="#mcce7e659cf" y="559.502218"/>
      </g>
     </g>
     <g id="text_41">
      <!-- -75 -->
      <g transform="translate(1239.963636 562.939718)scale(0.1 -0.1)">
       <defs>
        <path d="M 46.484375 33.203125 
L 1.953125 33.203125 
L 1.953125 39.453125 
L 46.484375 39.453125 
z
" id="SimHei-45"/>
       </defs>
       <use xlink:href="#SimHei-45"/>
       <use x="50" xlink:href="#SimHei-55"/>
       <use x="100" xlink:href="#SimHei-53"/>
      </g>
     </g>
    </g>
    <g id="ytick_10">
     <g id="line2d_79">
      <path clip-path="url(#p504f7ed878)" d="M 1261.963636 501.564256 
L 2073.6 501.564256 
" style="fill:none;stroke:#b0b0b0;stroke-linecap:square;stroke-opacity:0.6;stroke-width:0.8;"/>
     </g>
     <g id="line2d_80">
      <g>
       <use style="stroke:#000000;stroke-width:0.8;" x="1261.963636" xlink:href="#mcce7e659cf" y="501.564256"/>
      </g>
     </g>
     <g id="text_42">
      <!-- -50 -->
      <g transform="translate(1239.963636 505.001756)scale(0.1 -0.1)">
       <use xlink:href="#SimHei-45"/>
       <use x="50" xlink:href="#SimHei-53"/>
       <use x="100" xlink:href="#SimHei-48"/>
      </g>
     </g>
    </g>
    <g id="ytick_11">
     <g id="line2d_81">
      <path clip-path="url(#p504f7ed878)" d="M 1261.963636 443.626294 
L 2073.6 443.626294 
" style="fill:none;stroke:#b0b0b0;stroke-linecap:square;stroke-opacity:0.6;stroke-width:0.8;"/>
     </g>
     <g id="line2d_82">
      <g>
       <use style="stroke:#000000;stroke-width:0.8;" x="1261.963636" xlink:href="#mcce7e659cf" y="443.626294"/>
      </g>
     </g>
     <g id="text_43">
      <!-- -25 -->
      <g transform="translate(1239.963636 447.063794)scale(0.1 -0.1)">
       <use xlink:href="#SimHei-45"/>
       <use x="50" xlink:href="#SimHei-50"/>
       <use x="100" xlink:href="#SimHei-53"/>
      </g>
     </g>
    </g>
    <g id="ytick_12">
     <g id="line2d_83">
      <path clip-path="url(#p504f7ed878)" d="M 1261.963636 385.688331 
L 2073.6 385.688331 
" style="fill:none;stroke:#b0b0b0;stroke-linecap:square;stroke-opacity:0.6;stroke-width:0.8;"/>
     </g>
     <g id="line2d_84">
      <g>
       <use style="stroke:#000000;stroke-width:0.8;" x="1261.963636" xlink:href="#mcce7e659cf" y="385.688331"/>
      </g>
     </g>
     <g id="text_44">
      <!-- 0 -->
      <g transform="translate(1249.963636 389.125831)scale(0.1 -0.1)">
       <use xlink:href="#SimHei-48"/>
      </g>
     </g>
    </g>
    <g id="ytick_13">
     <g id="line2d_85">
      <path clip-path="url(#p504f7ed878)" d="M 1261.963636 327.750369 
L 2073.6 327.750369 
" style="fill:none;stroke:#b0b0b0;stroke-linecap:square;stroke-opacity:0.6;stroke-width:0.8;"/>
     </g>
     <g id="line2d_86">
      <g>
       <use style="stroke:#000000;stroke-width:0.8;" x="1261.963636" xlink:href="#mcce7e659cf" y="327.750369"/>
      </g>
     </g>
     <g id="text_45">
      <!-- 25 -->
      <g transform="translate(1244.963636 331.187869)scale(0.1 -0.1)">
       <use xlink:href="#SimHei-50"/>
       <use x="50" xlink:href="#SimHei-53"/>
      </g>
     </g>
    </g>
    <g id="ytick_14">
     <g id="line2d_87">
      <path clip-path="url(#p504f7ed878)" d="M 1261.963636 269.812407 
L 2073.6 269.812407 
" style="fill:none;stroke:#b0b0b0;stroke-linecap:square;stroke-opacity:0.6;stroke-width:0.8;"/>
     </g>
     <g id="line2d_88">
      <g>
       <use style="stroke:#000000;stroke-width:0.8;" x="1261.963636" xlink:href="#mcce7e659cf" y="269.812407"/>
      </g>
     </g>
     <g id="text_46">
      <!-- 50 -->
      <g transform="translate(1244.963636 273.249907)scale(0.1 -0.1)">
       <use xlink:href="#SimHei-53"/>
       <use x="50" xlink:href="#SimHei-48"/>
      </g>
     </g>
    </g>
    <g id="ytick_15">
     <g id="line2d_89">
      <path clip-path="url(#p504f7ed878)" d="M 1261.963636 211.874444 
L 2073.6 211.874444 
" style="fill:none;stroke:#b0b0b0;stroke-linecap:square;stroke-opacity:0.6;stroke-width:0.8;"/>
     </g>
     <g id="line2d_90">
      <g>
       <use style="stroke:#000000;stroke-width:0.8;" x="1261.963636" xlink:href="#mcce7e659cf" y="211.874444"/>
      </g>
     </g>
     <g id="text_47">
      <!-- 75 -->
      <g transform="translate(1244.963636 215.311944)scale(0.1 -0.1)">
       <use xlink:href="#SimHei-55"/>
       <use x="50" xlink:href="#SimHei-53"/>
      </g>
     </g>
    </g>
    <g id="ytick_16">
     <g id="line2d_91">
      <path clip-path="url(#p504f7ed878)" d="M 1261.963636 153.936482 
L 2073.6 153.936482 
" style="fill:none;stroke:#b0b0b0;stroke-linecap:square;stroke-opacity:0.6;stroke-width:0.8;"/>
     </g>
     <g id="line2d_92">
      <g>
       <use style="stroke:#000000;stroke-width:0.8;" x="1261.963636" xlink:href="#mcce7e659cf" y="153.936482"/>
      </g>
     </g>
     <g id="text_48">
      <!-- 100 -->
      <g transform="translate(1239.963636 157.373982)scale(0.1 -0.1)">
       <use xlink:href="#SimHei-49"/>
       <use x="50" xlink:href="#SimHei-48"/>
       <use x="100" xlink:href="#SimHei-48"/>
      </g>
     </g>
    </g>
    <g id="ytick_17">
     <g id="line2d_93">
      <path clip-path="url(#p504f7ed878)" d="M 1261.963636 95.99852 
L 2073.6 95.99852 
" style="fill:none;stroke:#b0b0b0;stroke-linecap:square;stroke-opacity:0.6;stroke-width:0.8;"/>
     </g>
     <g id="line2d_94">
      <g>
       <use style="stroke:#000000;stroke-width:0.8;" x="1261.963636" xlink:href="#mcce7e659cf" y="95.99852"/>
      </g>
     </g>
     <g id="text_49">
      <!-- 125 -->
      <g transform="translate(1239.963636 99.43602)scale(0.1 -0.1)">
       <use xlink:href="#SimHei-49"/>
       <use x="50" xlink:href="#SimHei-50"/>
       <use x="100" xlink:href="#SimHei-53"/>
      </g>
     </g>
    </g>
    <g id="text_50">
     <!-- 同比增速（百分比） -->
     <g transform="translate(1234.713636 367.38)rotate(-90)scale(0.1 -0.1)">
      <defs>
       <path d="M 91.015625 76.953125 
Q 90.234375 71.09375 90.234375 62.109375 
L 90.234375 -0.78125 
Q 90.234375 -6.25 86.328125 -7.609375 
Q 82.421875 -8.984375 73.828125 -9.765625 
Q 73.828125 -6.25 70.703125 -0.78125 
Q 76.953125 -0.78125 79.6875 -0.1875 
Q 82.421875 0.390625 82.421875 3.125 
L 82.421875 69.53125 
L 17.96875 69.53125 
L 17.96875 -9.375 
L 8.984375 -9.375 
Q 9.375 -3.90625 9.765625 3.125 
L 9.765625 62.109375 
Q 9.765625 71.484375 9.375 76.953125 
L 91.015625 76.953125 
z
M 68.359375 39.84375 
Q 67.578125 35.546875 67.578125 26.5625 
Q 67.578125 17.96875 68.359375 11.328125 
L 31.640625 11.328125 
Q 32.03125 18.359375 32.03125 27.34375 
Q 32.03125 36.328125 31.640625 39.84375 
L 68.359375 39.84375 
z
M 64.0625 58.59375 
Q 71.875 58.59375 75.390625 58.984375 
L 75.390625 51.171875 
Q 71.484375 51.5625 63.671875 51.5625 
L 38.28125 51.5625 
Q 28.90625 51.5625 25 51.171875 
L 25 58.984375 
Q 29.296875 58.59375 38.671875 58.59375 
z
M 60.546875 17.96875 
L 60.546875 33.59375 
L 39.453125 33.59375 
L 39.453125 17.96875 
z
" id="SimHei-21516"/>
       <path d="M 58.984375 79.6875 
Q 58.59375 71.484375 58.59375 64.0625 
L 58.59375 47.65625 
Q 76.953125 56.25 85.546875 65.234375 
Q 88.671875 60.9375 92.1875 57.421875 
Q 87.5 54.6875 78.703125 49.796875 
Q 69.921875 44.921875 58.59375 39.84375 
L 58.59375 7.03125 
Q 58.59375 1.5625 63.28125 1.5625 
L 78.125 1.5625 
Q 80.859375 1.5625 82.21875 3.90625 
Q 83.59375 6.25 85.15625 14.0625 
Q 88.28125 12.109375 94.140625 10.546875 
Q 91.40625 0 88.28125 -2.734375 
Q 85.15625 -5.46875 81.640625 -5.46875 
L 60.9375 -5.46875 
Q 50.78125 -5.46875 50.78125 4.296875 
L 50.78125 62.5 
Q 50.78125 71.09375 50.390625 79.6875 
L 58.984375 79.6875 
z
M 19.921875 77.734375 
Q 19.53125 71.484375 19.53125 62.5 
L 19.53125 49.21875 
L 28.90625 49.21875 
Q 36.328125 49.21875 44.921875 49.609375 
L 44.921875 41.40625 
Q 36.328125 41.796875 28.90625 41.796875 
L 19.53125 41.796875 
L 19.53125 7.421875 
Q 25.78125 10.15625 30.65625 12.6875 
Q 35.546875 15.234375 44.53125 19.921875 
Q 45.3125 14.84375 46.09375 11.71875 
Q 37.109375 7.421875 27.53125 2.734375 
Q 17.96875 -1.953125 14.453125 -5.078125 
Q 11.71875 -1.5625 8.984375 3.125 
Q 10.9375 4.6875 11.71875 9.375 
L 11.71875 61.71875 
Q 11.71875 71.09375 11.328125 77.734375 
L 19.921875 77.734375 
z
" id="SimHei-27604"/>
       <path d="M 85.546875 78.125 
Q 83.203125 75.390625 81.4375 72.0625 
Q 79.6875 68.75 78.515625 66.015625 
L 93.359375 66.015625 
Q 92.96875 62.109375 92.96875 55.078125 
L 92.96875 44.53125 
Q 92.96875 37.5 93.359375 33.203125 
L 39.0625 33.203125 
Q 39.453125 39.84375 39.453125 45.3125 
L 39.453125 56.25 
Q 39.453125 62.5 39.0625 66.015625 
L 71.484375 66.015625 
Q 75 75.78125 76.171875 82.03125 
L 85.546875 78.125 
z
M 89.84375 27.34375 
Q 89.453125 21.875 89.453125 17.1875 
L 89.453125 1.953125 
Q 89.453125 -4.6875 89.84375 -9.765625 
L 82.03125 -9.765625 
L 82.03125 -4.6875 
L 50.78125 -4.6875 
L 50.78125 -9.765625 
L 43.359375 -9.765625 
Q 43.75 -1.171875 43.75 1.171875 
L 43.75 16.796875 
Q 43.75 22.265625 43.359375 27.34375 
L 89.84375 27.34375 
z
M 39.0625 13.671875 
Q 31.640625 11.328125 21.484375 8.203125 
Q 11.328125 5.078125 7.03125 2.734375 
Q 5.078125 7.421875 3.125 10.546875 
Q 14.453125 13.28125 17.96875 14.453125 
L 17.96875 46.484375 
L 15.625 46.484375 
Q 10.15625 46.484375 4.296875 46.09375 
L 4.296875 53.125 
Q 10.15625 52.734375 15.625 52.734375 
L 17.96875 52.734375 
L 17.96875 66.40625 
Q 17.96875 72.265625 17.578125 77.734375 
L 25.78125 77.734375 
Q 25.390625 71.484375 25.390625 66.40625 
L 25.390625 52.734375 
L 28.125 52.734375 
Q 32.421875 52.734375 36.328125 53.125 
L 36.328125 46.09375 
Q 31.25 46.484375 28.125 46.484375 
L 25.390625 46.484375 
L 25.390625 16.40625 
Q 32.8125 18.359375 38.28125 19.921875 
z
M 85.546875 38.28125 
L 85.546875 60.546875 
L 69.140625 60.546875 
L 69.140625 38.28125 
z
M 62.109375 38.28125 
L 62.109375 60.546875 
L 46.484375 60.546875 
L 46.484375 38.28125 
z
M 82.03125 13.671875 
L 82.03125 21.09375 
L 50.78125 21.09375 
L 50.78125 13.671875 
z
M 82.03125 1.171875 
L 82.03125 7.8125 
L 50.78125 7.8125 
L 50.78125 1.171875 
z
M 59.765625 70.3125 
Q 56.25 68.75 53.515625 66.40625 
Q 51.5625 70.3125 45.703125 77.734375 
Q 48.4375 78.90625 51.5625 82.03125 
Q 55.078125 77.34375 59.765625 70.3125 
z
M 83.59375 54.6875 
Q 81.640625 50.390625 78.125 41.796875 
Q 74.609375 43.75 71.09375 44.921875 
Q 74.21875 50.78125 76.171875 57.421875 
Q 78.90625 55.859375 83.59375 54.6875 
z
M 47.65625 53.515625 
Q 50 55.078125 53.90625 56.640625 
Q 55.859375 53.125 59.375 44.921875 
Q 55.859375 43.359375 52.734375 42.1875 
Q 50.78125 48.4375 47.65625 53.515625 
z
" id="SimHei-22686"/>
       <path d="M 58.203125 71.875 
Q 58.203125 77.734375 57.8125 82.03125 
L 65.234375 82.03125 
Q 64.84375 78.125 64.84375 71.875 
L 80.859375 71.875 
Q 86.71875 71.875 92.578125 72.265625 
L 92.578125 65.234375 
Q 86.71875 65.625 80.859375 65.625 
L 64.84375 65.625 
L 64.84375 58.203125 
L 89.0625 58.203125 
Q 88.671875 51.953125 88.671875 46.09375 
Q 88.671875 40.234375 89.0625 34.375 
L 64.84375 34.375 
Q 64.84375 11.328125 65.234375 3.515625 
L 57.8125 3.515625 
Q 58.203125 11.328125 58.203125 30.078125 
Q 53.515625 23.046875 48.4375 17.578125 
Q 43.359375 12.109375 35.9375 6.640625 
Q 33.203125 9.765625 28.515625 12.109375 
Q 35.546875 14.84375 42.375 21.671875 
Q 49.21875 28.515625 51.953125 34.375 
L 34.375 34.375 
Q 34.765625 41.015625 34.765625 46.09375 
Q 34.765625 51.5625 34.375 58.203125 
L 58.203125 58.203125 
L 58.203125 65.625 
L 41.796875 65.625 
Q 36.328125 65.625 30.078125 65.234375 
L 30.078125 72.265625 
Q 36.328125 71.875 41.796875 71.875 
z
M 23.4375 44.921875 
Q 23.046875 37.5 23.046875 30.078125 
L 23.046875 8.59375 
Q 33.59375 -0.390625 58.203125 -0.578125 
Q 82.8125 -0.78125 96.875 1.5625 
Q 94.140625 -2.734375 93.75 -8.203125 
Q 61.328125 -8.59375 48.234375 -7.421875 
Q 35.15625 -6.25 28.125 -2.140625 
Q 21.09375 1.953125 17.375 -0.96875 
Q 13.671875 -3.90625 9.375 -9.375 
Q 7.421875 -5.859375 3.125 -3.125 
Q 7.421875 0.390625 15.625 6.25 
L 15.625 38.28125 
Q 10.546875 38.28125 4.296875 37.890625 
L 4.296875 45.3125 
Q 10.9375 44.921875 15.625 44.921875 
z
M 71.09375 32.03125 
Q 77.34375 26.5625 92.578125 14.453125 
Q 89.453125 12.109375 86.71875 8.59375 
Q 79.296875 15.625 66.40625 26.171875 
Q 68.75 28.515625 71.09375 32.03125 
z
M 58.203125 40.234375 
L 58.203125 51.953125 
L 41.796875 51.953125 
L 41.796875 40.234375 
z
M 81.25 40.234375 
L 81.25 51.953125 
L 64.84375 51.953125 
L 64.84375 40.234375 
z
M 17.1875 77.34375 
Q 22.265625 67.96875 25 60.15625 
Q 21.09375 58.59375 16.40625 56.640625 
Q 15.234375 63.28125 10.15625 75 
Q 14.0625 75.78125 17.1875 77.34375 
z
" id="SimHei-36895"/>
       <path d="M 78.90625 75.78125 
Q 88.671875 75.78125 92.96875 76.171875 
L 92.96875 69.140625 
Q 87.5 69.53125 78.90625 69.53125 
L 53.125 69.53125 
Q 50 60.546875 48.046875 53.90625 
L 82.8125 53.90625 
Q 82.421875 46.484375 82.421875 38.671875 
L 82.421875 8.59375 
Q 82.421875 -0.78125 82.8125 -8.203125 
L 75 -8.203125 
L 75 -0.390625 
L 25.390625 -0.390625 
L 25.390625 -9.375 
L 17.578125 -9.375 
Q 17.96875 4.296875 17.96875 8.59375 
L 17.96875 37.5 
Q 17.96875 48.4375 17.578125 53.90625 
L 40.625 53.90625 
Q 43.359375 61.71875 44.921875 69.53125 
L 21.875 69.53125 
Q 15.234375 69.53125 6.640625 69.140625 
L 6.640625 76.171875 
Q 14.453125 75.78125 21.484375 75.78125 
z
M 75 6.25 
L 75 23.828125 
L 25.390625 23.828125 
L 25.390625 6.25 
z
M 75 30.46875 
L 75 47.65625 
L 25.390625 47.65625 
L 25.390625 30.46875 
z
" id="SimHei-30334"/>
       <path d="M 15.625 -10.15625 
Q 12.890625 -5.859375 8.984375 -3.515625 
Q 15.234375 -1.171875 20.3125 2.140625 
Q 25.390625 5.46875 29.296875 10.34375 
Q 33.203125 15.234375 35.15625 21.09375 
Q 37.109375 26.953125 37.890625 35.546875 
Q 28.90625 35.546875 23.4375 35.15625 
L 23.4375 43.359375 
Q 29.6875 42.96875 39.453125 42.96875 
L 78.515625 42.96875 
Q 77.734375 37.109375 77.34375 32.8125 
L 74.21875 3.90625 
Q 73.4375 -3.125 67.96875 -5.46875 
Q 62.5 -7.8125 55.859375 -8.203125 
Q 55.46875 -4.296875 51.953125 0.78125 
Q 60.15625 0.390625 63.078125 1.359375 
Q 66.015625 2.34375 66.796875 8.203125 
L 69.53125 35.546875 
L 46.09375 35.546875 
Q 44.921875 25.390625 42.765625 18.546875 
Q 40.625 11.71875 36.71875 6.640625 
Q 32.8125 1.5625 27.34375 -2.734375 
Q 21.875 -7.03125 15.625 -10.15625 
z
M 61.71875 80.859375 
Q 64.453125 72.65625 72.84375 62.109375 
Q 81.25 51.5625 96.484375 43.75 
Q 93.359375 41.015625 90.234375 35.546875 
Q 83.203125 40.625 77.921875 45.109375 
Q 72.65625 49.609375 69.140625 53.515625 
Q 65.625 57.421875 61.328125 64.640625 
Q 57.03125 71.875 54.296875 78.125 
Q 58.59375 79.296875 61.71875 80.859375 
z
M 42.1875 75.390625 
Q 38.671875 69.140625 36.328125 64.453125 
Q 33.984375 59.765625 31.640625 56.046875 
Q 29.296875 52.34375 24.609375 46.09375 
Q 19.921875 39.84375 13.28125 33.203125 
Q 9.765625 36.71875 6.25 38.671875 
Q 14.0625 45.703125 18.546875 51.5625 
Q 23.046875 57.421875 27.140625 64.25 
Q 31.25 71.09375 34.375 79.296875 
Q 37.5 76.953125 42.1875 75.390625 
z
" id="SimHei-20998"/>
      </defs>
      <use xlink:href="#SimHei-21516"/>
      <use x="100" xlink:href="#SimHei-27604"/>
      <use x="200" xlink:href="#SimHei-22686"/>
      <use x="300" xlink:href="#SimHei-36895"/>
      <use x="400" xlink:href="#SimHei-65288"/>
      <use x="500" xlink:href="#SimHei-30334"/>
      <use x="600" xlink:href="#SimHei-20998"/>
      <use x="700" xlink:href="#SimHei-27604"/>
      <use x="800" xlink:href="#SimHei-65289"/>
     </g>
    </g>
   </g>
   <g id="line2d_95">
    <path clip-path="url(#p504f7ed878)" d="M 1701.320511 223.501118 
L 1768.397896 230.376372 
L 1835.475282 265.425122 
L 1902.552667 293.188678 
L 1969.630053 278.22547 
L 2036.707438 274.606466 
" style="fill:none;stroke:#1f77b4;stroke-linecap:square;stroke-width:1.5;"/>
   </g>
   <g id="line2d_96">
    <path clip-path="url(#p504f7ed878)" d="M 1298.856198 341.991013 
L 1365.933584 99.998182 
L 1433.010969 271.791312 
L 1500.088355 249.486973 
L 1567.16574 268.25911 
L 1634.243125 267.09125 
L 1701.320511 289.354973 
L 1768.397896 276.677587 
L 1835.475282 290.031226 
L 1902.552667 263.165261 
L 1969.630053 254.944729 
L 2036.707438 273.922603 
" style="fill:none;stroke:#ff7f0e;stroke-linecap:square;stroke-width:1.5;"/>
   </g>
   <g id="line2d_97">
    <path clip-path="url(#p504f7ed878)" d="M 1298.856198 209.303071 
L 1365.933584 544.761818 
" style="fill:none;stroke:#2ca02c;stroke-linecap:square;stroke-width:1.5;"/>
   </g>
   <g id="patch_9">
    <path d="M 1261.963636 567 
L 1261.963636 77.76 
" style="fill:none;stroke:#000000;stroke-linecap:square;stroke-linejoin:miter;stroke-width:0.8;"/>
   </g>
   <g id="patch_10">
    <path d="M 2073.6 567 
L 2073.6 77.76 
" style="fill:none;stroke:#000000;stroke-linecap:square;stroke-linejoin:miter;stroke-width:0.8;"/>
   </g>
   <g id="patch_11">
    <path d="M 1261.963636 567 
L 2073.6 567 
" style="fill:none;stroke:#000000;stroke-linecap:square;stroke-linejoin:miter;stroke-width:0.8;"/>
   </g>
   <g id="patch_12">
    <path d="M 1261.963636 77.76 
L 2073.6 77.76 
" style="fill:none;stroke:#000000;stroke-linecap:square;stroke-linejoin:miter;stroke-width:0.8;"/>
   </g>
   <g id="text_51">
    <!-- 月度同比增速 -->
    <g transform="translate(1631.781818 71.76)scale(0.12 -0.12)">
     <use xlink:href="#SimHei-26376"/>
     <use x="100" xlink:href="#SimHei-24230"/>
     <use x="200" xlink:href="#SimHei-21516"/>
     <use x="300" xlink:href="#SimHei-27604"/>
     <use x="400" xlink:href="#SimHei-22686"/>
     <use x="500" xlink:href="#SimHei-36895"/>
    </g>
   </g>
   <g id="legend_2">
    <g id="patch_13">
     <path d="M 2004.6 128.41625 
L 2066.6 128.41625 
Q 2068.6 128.41625 2068.6 126.41625 
L 2068.6 84.76 
Q 2068.6 82.76 2066.6 82.76 
L 2004.6 82.76 
Q 2002.6 82.76 2002.6 84.76 
L 2002.6 126.41625 
Q 2002.6 128.41625 2004.6 128.41625 
z
" style="fill:#ffffff;opacity:0.8;stroke:#cccccc;stroke-linejoin:miter;"/>
    </g>
    <g id="line2d_98">
     <path d="M 2006.6 91.22875 
L 2026.6 91.22875 
" style="fill:none;stroke:#1f77b4;stroke-linecap:square;stroke-width:1.5;"/>
    </g>
    <g id="line2d_99"/>
    <g id="text_52">
     <!-- 2013年 -->
     <g transform="translate(2034.6 94.72875)scale(0.1 -0.1)">
      <use xlink:href="#SimHei-50"/>
      <use x="50" xlink:href="#SimHei-48"/>
      <use x="100" xlink:href="#SimHei-49"/>
      <use x="150" xlink:href="#SimHei-51"/>
      <use x="200" xlink:href="#SimHei-24180"/>
     </g>
    </g>
    <g id="line2d_100">
     <path d="M 2006.6 105.4475 
L 2026.6 105.4475 
" style="fill:none;stroke:#ff7f0e;stroke-linecap:square;stroke-width:1.5;"/>
    </g>
    <g id="line2d_101"/>
    <g id="text_53">
     <!-- 2014年 -->
     <g transform="translate(2034.6 108.9475)scale(0.1 -0.1)">
      <use xlink:href="#SimHei-50"/>
      <use x="50" xlink:href="#SimHei-48"/>
      <use x="100" xlink:href="#SimHei-49"/>
      <use x="150" xlink:href="#SimHei-52"/>
      <use x="200" xlink:href="#SimHei-24180"/>
     </g>
    </g>
    <g id="line2d_102">
     <path d="M 2006.6 119.66625 
L 2026.6 119.66625 
" style="fill:none;stroke:#2ca02c;stroke-linecap:square;stroke-width:1.5;"/>
    </g>
    <g id="line2d_103"/>
    <g id="text_54">
     <!-- 2015年 -->
     <g transform="translate(2034.6 123.16625)scale(0.1 -0.1)">
      <use xlink:href="#SimHei-50"/>
      <use x="50" xlink:href="#SimHei-48"/>
      <use x="100" xlink:href="#SimHei-49"/>
      <use x="150" xlink:href="#SimHei-53"/>
      <use x="200" xlink:href="#SimHei-24180"/>
     </g>
    </g>
   </g>
  </g>
 </g>
 <defs>
  <clipPath id="p087a9d6bae">
   <rect height="489.24" width="811.636364" x="288" y="77.76"/>
  </clipPath>
  <clipPath id="p504f7ed878">
   <rect height="489.24" width="811.636364" x="1261.963636" y="77.76"/>
  </clipPath>
 </defs>
</svg>
